<?xml version="1.0" standalone="no"?>
<!DOCTYPE svg PUBLIC "-//W3C//DTD SVG 20010904//EN"
 "http://www.w3.org/TR/2001/REC-SVG-20010904/DTD/svg10.dtd">
<svg version="1.0" xmlns="http://www.w3.org/2000/svg"
 width="1024.000000pt" height="1024.000000pt" viewBox="0 0 1024.000000 1024.000000"
 preserveAspectRatio="xMidYMid meet">
<metadata>
Created by potrace 1.11, written by Peter Selinger 2001-2013
</metadata>
<g transform="translate(0.000000,1024.000000) scale(0.100000,-0.100000)"
fill="#000000" stroke="none">
<path d="M1380 5125 l0 -2046 953 4 c831 3 965 5 1056 20 353 57 594 166 762
344 202 215 309 495 310 812 0 200 -33 341 -112 489 -118 221 -317 387 -571
477 l-78 27 83 50 c453 270 609 796 374 1263 -161 321 -430 507 -822 570 -182
29 -373 35 -1157 35 l-798 0 0 -2045z m1840 1532 c178 -30 265 -72 357 -170
105 -113 153 -247 153 -430 0 -185 -42 -300 -149 -408 -112 -112 -246 -166
-466 -188 -64 -7 -331 -11 -652 -11 l-543 0 0 616 0 615 603 -4 c496 -3 619
-6 697 -20z m0 -1711 c162 -22 237 -43 337 -91 149 -72 251 -190 310 -357 22
-61 27 -95 31 -205 5 -161 -11 -247 -70 -365 -102 -203 -304 -325 -591 -357
-58 -7 -340 -11 -707 -11 l-610 0 0 706 0 707 598 -6 c443 -4 624 -10 702 -21z"/>
<path d="M6910 6735 l0 -175 1015 0 1015 0 -2 173 -3 172 -1012 3 -1013 2 0
-175z"/>
<path d="M6148 6100 c-110 -19 -226 -76 -301 -148 -54 -52 -144 -172 -202
-272 l-50 -84 -3 222 -2 222 -225 0 -225 0 0 -1480 0 -1480 249 0 250 0 4 878
c3 776 5 889 21 981 43 259 100 403 196 500 166 165 395 192 647 76 l72 -33
82 221 c45 122 84 227 86 233 6 16 -136 87 -243 123 -50 17 -130 35 -179 41
-100 11 -110 11 -177 0z"/>
</g>
</svg>
